<?xml version="1.0" encoding="UTF-8" standalone="no"?>
<svg
   version="1.1"
   id="Layer_1"
   x="0px"
   y="0px"
   width="100%"
   viewBox="0 0 669 420"
   enable-background="new 0 0 669 420"
   xml:space="preserve"
   sodipodi:docname="bezel_gray.svg"
   inkscape:version="1.2.2 (732a01da63, 2022-12-09)"
   xmlns:inkscape="http://www.inkscape.org/namespaces/inkscape"
   xmlns:sodipodi="http://sodipodi.sourceforge.net/DTD/sodipodi-0.dtd"
   xmlns="http://www.w3.org/2000/svg"
   xmlns:svg="http://www.w3.org/2000/svg"><defs
   id="defs126" /><sodipodi:namedview
   id="namedview124"
   pagecolor="#ffffff"
   bordercolor="#000000"
   borderopacity="0.25"
   inkscape:showpageshadow="2"
   inkscape:pageopacity="0.0"
   inkscape:pagecheckerboard="0"
   inkscape:deskcolor="#d1d1d1"
   showgrid="false"
   inkscape:zoom="1.8086697"
   inkscape:cx="334.5"
   inkscape:cy="210.09917"
   inkscape:window-width="1920"
   inkscape:window-height="1009"
   inkscape:window-x="-8"
   inkscape:window-y="-8"
   inkscape:window-maximized="1"
   inkscape:current-layer="Layer_1" />

<path
   fill="#2B2623"
   opacity="1.000000"
   stroke="none"
   d=" M670.000000,312.531342   C669.341187,314.765839 668.179932,316.509613 668.101196,318.300934   C667.292603,336.706543 666.869324,355.131042 665.886780,373.526184   C665.410278,382.446167 663.977783,391.315063 662.581482,400.496155   C658.017395,397.802521 653.849915,394.819794 649.786072,391.450745   C650.812378,386.163330 652.254822,381.295471 652.570679,376.355591   C654.206177,350.775482 655.788147,325.187378 656.925476,299.581482   C657.796997,279.959961 658.386169,260.307800 658.381836,240.669403   C658.374023,204.881912 658.288574,169.082794 657.366394,133.310913   C656.658936,105.868637 654.615662,78.460808 653.444641,50.869179   C654.997742,49.195377 656.379150,47.766315 657.523682,46.167629   C659.432312,43.501659 661.189148,40.727108 663.146606,38.386261   C663.508545,40.077175 663.875122,41.373341 663.937988,42.684082   C664.985901,64.526085 665.916382,86.374313 667.130737,108.206841   C667.259216,110.517273 669.004639,112.737778 670.000000,115.000000   C670.000000,115.750000 670.000000,116.500000 669.744141,117.897980   C667.310974,125.753304 666.686523,132.923615 670.000000,140.000000   C670.000000,197.354233 670.000000,254.708450 670.000000,312.531342  z"
   id="path67" />
<path
   fill="#332E2A"
   opacity="1.000000"
   stroke="none"
   d=" M670.000000,114.531342   C669.004639,112.737778 667.259216,110.517273 667.130737,108.206841   C665.916382,86.374313 664.985901,64.526085 663.937988,42.684082   C663.875122,41.373341 663.508545,40.077175 663.141846,37.923393   C662.938293,33.941692 663.100769,30.786674 662.767090,27.685019   C662.079956,21.297253 660.624756,15.224755 653.551270,12.104132   C637.103088,11.007215 621.074890,9.971525 604.658936,8.811743   C600.864197,8.512742 597.457336,8.337834 593.611694,8.159340   C586.151550,8.383021 579.130066,8.610290 571.777344,8.714350   C570.294434,8.377771 569.142761,8.164400 567.616577,7.941319   C566.492859,7.933107 565.743530,7.934604 564.548340,7.921747   C556.375610,7.615557 548.646362,7.377022 540.923279,7.008284   C537.330139,6.836729 533.749146,6.412446 530.162598,6.102723   C553.451355,6.087670 576.747925,5.695957 600.026184,6.182762   C617.097595,6.539766 634.146301,8.025875 651.202209,9.056903   C657.682068,9.448607 662.351013,12.438010 663.751770,19.052811   C664.777527,23.896591 665.634644,28.836426 665.901550,33.769459   C666.771301,49.843063 667.311157,65.934341 668.067078,82.014618   C668.124634,83.240166 668.880249,84.432892 669.655701,85.820435   C670.000000,95.354225 670.000000,104.708458 670.000000,114.531342  z"
   id="path69" />
<path
   fill="#332E2A"
   opacity="1.000000"
   stroke="none"
   d=" M670.000000,139.531433   C666.686523,132.923615 667.310974,125.753304 669.744141,118.272980   C670.000000,125.020950 670.000000,132.041901 670.000000,139.531433  z"
   id="path71" />
<path
   fill="#3C3731"
   opacity="1.000000"
   stroke="none"
   d=" M556.968018,414.843994   C542.676270,415.229858 528.386536,415.728180 514.092407,415.976501   C489.639130,416.401215 465.184143,416.820526 440.728180,416.974091   C374.297974,417.391113 307.867188,417.779480 241.436035,417.938751   C218.481415,417.993805 195.525146,417.337555 172.569534,417.012085   C148.449020,416.670105 124.328041,416.356415 100.208420,415.959961   C98.083420,415.925049 95.966988,415.369049 93.678879,414.697845   C99.857658,412.983978 106.163261,410.847870 112.563263,410.512421   C117.874573,410.233978 120.772713,407.982178 123.486298,403.782593   C166.396835,404.592438 208.837540,405.846680 251.285400,406.174896   C307.055817,406.606201 362.832092,406.418823 418.605316,406.273285   C443.074890,406.209442 467.542969,405.591553 492.246704,405.464417   C497.023987,407.106293 501.493805,408.862976 506.128998,409.811768   C510.740753,410.755737 514.657471,409.119507 517.275818,404.593292   C518.057495,404.547028 518.505615,404.544373 518.985229,404.894623   C520.519165,407.302795 522.021667,409.358002 523.524109,411.413269   C525.200684,410.150024 527.058777,409.056671 528.471741,407.546783   C529.109985,406.864777 528.862549,405.353912 529.344727,404.187134   C530.111267,404.161285 530.550110,404.167358 531.051025,404.502258   C531.986023,412.484955 532.139404,412.673950 539.945374,413.031189   C543.098206,413.175446 546.283142,412.858521 549.414124,413.160004   C551.962524,413.405334 554.452271,414.259705 556.968018,414.843994  z"
   id="path73" />
<path
   fill="#2B2623"
   opacity="1.000000"
   stroke="none"
   d=" M12.175539,400.018860   C11.122359,393.156342 9.559669,386.326385 9.118493,379.424713   C8.093939,363.396881 7.640168,347.333069 6.896801,331.286530   C6.461333,321.886353 5.913965,312.491333 5.821361,302.448486   C6.671583,300.089996 7.531832,298.369415 7.500558,296.665161   C7.079486,273.718872 6.398406,250.776733 6.090646,227.829437   C5.977088,219.362335 6.883874,210.886124 6.952116,202.411057   C7.097935,184.301315 6.897819,166.188782 7.041924,148.079010   C7.123933,137.772934 7.823452,127.470314 7.835708,117.165657   C7.844950,109.394539 7.204659,101.622643 6.853475,93.851097   C6.897137,93.430305 6.940800,93.009506 7.271119,92.002472   C8.028925,89.858749 8.810721,88.323135 8.922104,86.740341   C9.817513,74.016098 10.661890,61.286804 11.310944,48.548302   C11.405672,46.689137 10.384324,44.773098 9.879404,42.883377   C9.927397,41.189022 9.975390,39.494667 10.285217,37.132652   C10.661199,34.272476 10.775348,32.079956 10.889497,29.887436   C10.927162,29.443380 10.964828,28.999323 11.187885,27.908985   C12.268734,24.843977 13.164189,22.425247 14.220087,20.209335   C15.187298,25.860350 15.824728,31.341145 16.864828,36.744427   C17.481224,39.946598 19.681932,41.871170 23.127739,42.436913   C21.977055,65.004723 20.701183,87.096222 19.750095,109.201691   C18.862818,129.824036 17.826036,150.459000 17.734045,171.092346   C17.564821,209.049622 17.509958,247.022552 18.421488,284.964569   C19.108812,313.574127 21.240494,342.154358 23.039772,370.728088   C23.486351,377.820038 25.136040,384.836212 25.905043,392.030396   C21.110096,394.788635 16.642817,397.403748 12.175539,400.018860  z"
   id="path75" />
<path
   fill="#211C17"
   opacity="1.000000"
   stroke="none"
   d=" M529.951904,6.060815   C533.749146,6.412446 537.330139,6.836729 540.923279,7.008284   C548.646362,7.377022 556.375610,7.615557 564.489380,8.251888   C565.279297,10.863157 565.682312,13.129930 566.111145,15.542062   C565.186340,16.539385 564.101624,17.709187 562.551086,18.893797   C543.124451,18.280735 524.167725,17.458673 505.202057,17.065767   C466.754547,16.269262 428.302795,15.200624 389.851776,15.158126   C324.907196,15.086348 259.961853,15.724890 194.856155,15.890269   C193.791595,15.832330 192.887711,15.948866 191.595230,16.082533   C190.169601,16.110168 189.132553,16.120672 187.820312,16.028454   C186.371735,16.242126 185.198349,16.558521 183.646881,16.881935   C182.512527,16.885315 181.756271,16.881678 180.909546,16.517759   C179.999054,13.157010 179.861313,9.293409 175.613907,9.298070   C169.543610,9.304729 163.444962,9.633522 157.415375,10.322850   C154.036026,10.709191 151.467392,10.468478 150.424988,7.012087   C155.660172,6.658755 160.475159,6.080220 165.286102,6.112061   C179.929504,6.208976 194.575119,6.864840 209.212708,6.692734   C224.345795,6.514803 239.466736,5.282877 254.599640,5.116836   C280.727753,4.830154 306.861023,5.003810 332.992126,4.998504   C354.643860,4.994107 376.296112,4.913863 397.947174,5.037350   C441.736572,5.287103 485.525330,5.652290 529.314331,5.969875   C529.314331,5.969875 529.741211,6.018906 529.951904,6.060815  z"
   id="path77" />
<path
   fill="#332E2A"
   opacity="1.000000"
   stroke="none"
   d=" M528.957764,5.709811   C485.525330,5.652290 441.736572,5.287103 397.947174,5.037350   C376.296112,4.913863 354.643860,4.994107 332.992126,4.998504   C306.861023,5.003810 280.727753,4.830154 254.599640,5.116836   C239.466736,5.282877 224.345795,6.514803 209.212708,6.692734   C194.575119,6.864840 179.929504,6.208976 165.286102,6.112061   C160.475159,6.080220 155.660172,6.658755 150.014893,7.016106   C145.781357,7.124175 142.379959,7.174315 138.513885,7.191256   C128.034225,7.440353 118.019226,7.722649 107.669250,8.004510   C106.887703,8.010510 106.441139,8.016947 105.579414,8.011911   C103.781578,8.021373 102.398895,8.042307 100.548073,8.059855   C95.031342,8.115570 89.982742,8.174672 84.527367,8.202920   C81.686501,8.745466 79.252411,9.318868 76.378677,9.877998   C63.323105,9.926391 50.697319,9.718820 38.095867,10.178397   C32.695690,10.375343 27.346128,11.960174 21.623856,12.988033   C18.869310,15.376617 16.464478,17.691568 14.059645,20.006519   C13.164189,22.425247 12.268734,24.843977 11.233024,27.577805   C10.810145,15.212805 16.001797,9.564099 28.788948,8.976469   C45.384533,8.213823 61.983398,7.481165 78.587990,6.965528   C103.675743,6.186456 128.768143,5.539335 153.861465,4.962883   C172.780426,4.528271 191.702911,4.103863 210.625610,4.001046   C284.543365,3.599411 358.461609,3.236102 432.380157,3.066607   C452.837128,3.019700 473.297943,3.598107 493.752747,4.071570   C505.373322,4.340550 516.985352,4.978152 528.957764,5.709811  z"
   id="path79" />
<path
   fill="#383330"
   opacity="1.000000"
   stroke="none"
   d=" M123.019638,403.814941   C120.772713,407.982178 117.874573,410.233978 112.563263,410.512421   C106.163261,410.847870 99.857658,412.983978 93.272369,414.592346   C78.682579,414.268372 64.330231,413.724335 49.981247,413.102631   C43.382336,412.816772 36.724205,412.821808 30.217640,411.855316   C25.813498,411.201172 21.626755,409.083435 17.479885,407.222168   C18.754522,406.725586 20.030266,406.239502 21.008369,406.588257   C31.636063,410.377472 42.152000,408.587891 52.538475,405.783234   C54.626068,405.219513 56.208576,402.785309 58.489494,401.184875   C75.361137,401.668365 91.769051,402.130707 108.172272,402.722870   C113.128082,402.901825 118.070885,403.440857 123.019638,403.814941  z"
   id="path81" />
<path
   fill="#332E2A"
   opacity="1.000000"
   stroke="none"
   d=" M649.682434,391.837067   C653.849915,394.819794 658.017395,397.802521 662.502563,400.900574   C660.618103,408.228882 654.798523,411.247131 648.190918,411.856262   C638.144165,412.782349 627.998108,412.631958 617.195190,412.661804   C613.440125,411.243896 610.466858,409.705078 607.310059,409.048187   C601.460876,407.831055 595.466003,407.308319 589.626404,406.055511   C588.517883,405.817657 587.847534,403.537537 587.409790,402.136108   C602.126892,401.401001 616.405090,400.617432 630.692993,400.103882   C638.195801,399.834198 644.777588,397.870453 649.682434,391.837067  z"
   id="path83" />
<path
   fill="#383330"
   opacity="1.000000"
   stroke="none"
   d=" M586.974976,402.199738   C587.847534,403.537537 588.517883,405.817657 589.626404,406.055511   C595.466003,407.308319 601.460876,407.831055 607.310059,409.048187   C610.466858,409.705078 613.440125,411.243896 616.725464,412.617065   C597.272156,413.543915 577.589478,414.238556 557.437439,414.888611   C554.452271,414.259705 551.962524,413.405334 549.414124,413.160004   C546.283142,412.858521 543.098206,413.175446 539.945374,413.031189   C532.139404,412.673950 531.986023,412.484955 531.504639,404.446411   C550.255676,403.441071 568.615295,402.820404 586.974976,402.199738  z"
   id="path85" />
<path
   fill="#332E2A"
   opacity="1.000000"
   stroke="none"
   d=" M6.646237,94.222374   C7.204659,101.622643 7.844950,109.394539 7.835708,117.165657   C7.823452,127.470314 7.123933,137.772934 7.041924,148.079010   C6.897819,166.188782 7.097935,184.301315 6.952116,202.411057   C6.883874,210.886124 5.977088,219.362335 6.090646,227.829437   C6.398406,250.776733 7.079486,273.718872 7.500558,296.665161   C7.531832,298.369415 6.671583,300.089996 5.984725,302.114868   C5.171906,290.849701 4.176188,279.275177 4.106693,267.695129   C3.884895,230.736664 3.729361,193.773315 4.105031,156.817520   C4.315933,136.070465 5.624804,115.334572 6.646237,94.222374  z"
   id="path87" />
<path
   fill="#332E2A"
   opacity="1.000000"
   stroke="none"
   d=" M58.023972,401.213562   C56.208576,402.785309 54.626068,405.219513 52.538475,405.783234   C42.152000,408.587891 31.636063,410.377472 21.008369,406.588257   C20.030266,406.239502 18.754522,406.725586 17.272076,406.945374   C15.366844,404.944458 13.806533,402.822174 12.210878,400.359375   C16.642817,397.403748 21.110096,394.788635 26.141994,392.253876   C31.204245,397.971375 37.421555,399.633911 44.242054,400.049011   C48.842609,400.329010 53.430447,400.818054 58.023972,401.213562  z"
   id="path89" />
<path
   fill="#332E2A"
   opacity="1.000000"
   stroke="none"
   d=" M9.676266,43.246334   C10.384324,44.773098 11.405672,46.689137 11.310944,48.548302   C10.661890,61.286804 9.817513,74.016098 8.922104,86.740341   C8.810721,88.323135 8.028925,89.858749 7.320282,91.689011   C7.879568,75.844284 8.676348,59.726788 9.676266,43.246334  z"
   id="path91" />
<path
   fill="#332E2A"
   opacity="1.000000"
   stroke="none"
   d=" M10.688518,30.228321   C10.775348,32.079956 10.661199,34.272476 10.322786,36.710251   C10.228195,34.826736 10.357866,32.697971 10.688518,30.228321  z"
   id="path93" />
<path
   fill="#040404"
   opacity="1.000000"
   stroke="none"
   d=" M58.489502,401.184875   C53.430447,400.818054 48.842609,400.329010 44.242054,400.049011   C37.421555,399.633911 31.204245,397.971375 26.469662,392.110718   C25.136040,384.836212 23.486351,377.820038 23.039772,370.728088   C21.240494,342.154358 19.108812,313.574127 18.421488,284.964569   C17.509958,247.022552 17.564821,209.049622 17.734045,171.092346   C17.826036,150.459000 18.862818,129.824036 19.750095,109.201691   C20.701183,87.096222 21.977055,65.004723 23.261312,42.091354   C25.250488,36.491348 27.089535,31.707117 29.240297,26.762739   C33.891018,25.089207 38.148678,22.617172 42.584164,22.240799   C56.312061,21.075914 70.102104,20.552513 83.878090,20.063435   C116.248955,18.914194 148.625671,17.929388 181.000015,16.878040   C181.756271,16.881678 182.512527,16.885315 183.991791,16.874508   C185.841705,16.617102 186.968613,16.374140 188.095505,16.131176   C189.132553,16.120672 190.169601,16.110168 191.844330,16.149433   C193.326950,16.154385 194.171890,16.109564 195.016815,16.064745   C259.961853,15.724890 324.907196,15.086348 389.851776,15.158126   C428.302795,15.200624 466.754547,16.269262 505.202057,17.065767   C524.167725,17.458673 543.124451,18.280735 563.013062,18.924622   C582.500671,19.640095 601.078796,20.040190 619.612061,21.172569   C628.142090,21.693754 636.584412,23.649376 645.263367,25.225784   C649.677734,29.475813 651.444946,34.520527 651.949768,40.159740   C652.275024,43.792904 652.755554,47.412159 653.166443,51.037651   C654.615662,78.460808 656.658936,105.868637 657.366394,133.310913   C658.288574,169.082794 658.374023,204.881912 658.381836,240.669403   C658.386169,260.307800 657.796997,279.959961 656.925476,299.581482   C655.788147,325.187378 654.206177,350.775482 652.570679,376.355591   C652.254822,381.295471 650.812378,386.163330 649.786072,391.450745   C644.777588,397.870453 638.195801,399.834198 630.692993,400.103882   C616.405090,400.617432 602.126892,401.401001 587.409790,402.136108   C568.615295,402.820404 550.255676,403.441071 531.442444,404.117615   C530.550110,404.167358 530.111267,404.161285 528.889404,404.148804   C525.055481,404.275482 522.004578,404.408600 518.953735,404.541687   C518.505615,404.544373 518.057495,404.547028 516.846069,404.529694   C508.059082,404.748199 500.035431,404.986725 492.011749,405.225250   C467.542969,405.591553 443.074890,406.209442 418.605316,406.273285   C362.832092,406.418823 307.055817,406.606201 251.285400,406.174896   C208.837540,405.846680 166.396835,404.592438 123.486298,403.782562   C118.070885,403.440857 113.128082,402.901825 108.172272,402.722870   C91.769051,402.130707 75.361137,401.668365 58.489502,401.184875  z"
   id="path95" />
<path
   fill="#211C17"
   opacity="1.000000"
   stroke="none"
   d=" M653.444641,50.869179   C652.755554,47.412159 652.275024,43.792904 651.949768,40.159740   C651.444946,34.520527 649.677734,29.475813 645.483276,24.986473   C648.859009,20.737499 654.308594,18.440973 653.971375,12.165358   C660.624756,15.224755 662.079956,21.297253 662.767090,27.685019   C663.100769,30.786674 662.938293,33.941692 663.005127,37.535423   C661.189148,40.727108 659.432312,43.501659 657.523682,46.167629   C656.379150,47.766315 654.997742,49.195377 653.444641,50.869179  z"
   id="path97" />
<path
   fill="#1E1915"
   opacity="1.000000"
   stroke="none"
   d=" M653.551270,12.104132   C654.308594,18.440973 648.859009,20.737499 645.286499,24.715250   C636.584412,23.649376 628.142090,21.693754 619.612061,21.172569   C601.078796,20.040190 582.500671,19.640095 563.478943,18.909813   C564.101624,17.709187 565.186340,16.539385 566.111145,15.542062   C565.682312,13.129930 565.279297,10.863157 564.935303,8.266243   C565.743530,7.934604 566.492859,7.933107 567.814575,8.151629   C569.627563,8.526950 570.868103,8.682253 572.108643,8.837556   C579.130066,8.610290 586.151550,8.383021 593.882690,8.379433   C598.077209,8.714019 601.561951,8.824926 605.046753,8.935834   C621.074890,9.971525 637.103088,11.007215 653.551270,12.104132  z"
   id="path99" />
<path
   fill="#211C17"
   opacity="1.000000"
   stroke="none"
   d=" M604.658936,8.811743   C601.561951,8.824926 598.077209,8.714019 594.321411,8.383018   C597.457336,8.337834 600.864197,8.512742 604.658936,8.811743  z"
   id="path101" />
<path
   fill="#211C17"
   opacity="1.000000"
   stroke="none"
   d=" M571.777344,8.714350   C570.868103,8.682253 569.627563,8.526950 568.189087,8.161339   C569.142761,8.164400 570.294434,8.377771 571.777344,8.714350  z"
   id="path103" />
<path
   fill="#383330"
   opacity="1.000000"
   stroke="none"
   d=" M492.246704,405.464417   C500.035431,404.986725 508.059082,404.748199 516.512512,404.573273   C514.657471,409.119507 510.740753,410.755737 506.128998,409.811768   C501.493805,408.862976 497.023987,407.106293 492.246704,405.464417  z"
   id="path105" />
<path
   fill="#383330"
   opacity="1.000000"
   stroke="none"
   d=" M518.985229,404.894623   C522.004578,404.408600 525.055481,404.275482 528.561646,404.180756   C528.862549,405.353912 529.109985,406.864777 528.471741,407.546783   C527.058777,409.056671 525.200684,410.150024 523.524109,411.413269   C522.021667,409.358002 520.519165,407.302795 518.985229,404.894623  z"
   id="path107" />
<path
   fill="#211C17"
   opacity="1.000000"
   stroke="none"
   d=" M28.928581,26.922882   C27.089535,31.707117 25.250488,36.491348 23.277866,41.621140   C19.681932,41.871170 17.481224,39.946598 16.864828,36.744427   C15.824728,31.341145 15.187298,25.860350 14.220087,20.209335   C16.464478,17.691568 18.869310,15.376617 21.640240,13.400484   C24.313749,18.133829 26.621164,22.528357 28.928581,26.922882  z"
   id="path109" />
<path
   fill="#1E1915"
   opacity="1.000000"
   stroke="none"
   d=" M29.240295,26.762737   C26.621164,22.528357 24.313749,18.133829 21.989952,13.326853   C27.346128,11.960174 32.695690,10.375343 38.095867,10.178397   C50.697319,9.718820 63.323105,9.926391 76.810753,9.895359   C80.099701,9.362585 82.516922,8.798180 84.934151,8.233774   C89.982742,8.174672 95.031342,8.115570 100.759727,8.264500   C102.957870,8.322815 104.476219,8.173099 105.994568,8.023382   C106.441139,8.016947 106.887703,8.010510 108.058578,8.137478   C117.781189,8.577482 126.778389,8.952277 135.779312,9.099345   C136.835236,9.116598 137.911636,7.879867 138.978546,7.224457   C142.379959,7.174315 145.781357,7.124175 149.592850,7.070017   C151.467392,10.468478 154.036026,10.709191 157.415375,10.322850   C163.444962,9.633522 169.543610,9.304729 175.613907,9.298070   C179.861313,9.293409 179.999054,13.157010 180.909546,16.517757   C148.625671,17.929388 116.248955,18.914194 83.878090,20.063435   C70.102104,20.552513 56.312061,21.075914 42.584164,22.240799   C38.148678,22.617172 33.891018,25.089207 29.240295,26.762737  z"
   id="path111" />
<path
   fill="#1E1915"
   opacity="1.000000"
   stroke="none"
   d=" M194.856155,15.890269   C194.171890,16.109564 193.326950,16.154385 192.232910,16.132301   C192.887711,15.948866 193.791595,15.832330 194.856155,15.890269  z"
   id="path113" />
<path
   fill="#1E1915"
   opacity="1.000000"
   stroke="none"
   d=" M187.820312,16.028454   C186.968613,16.374140 185.841705,16.617102 184.369904,16.867491   C185.198349,16.558521 186.371735,16.242126 187.820312,16.028454  z"
   id="path115" />
<path
   fill="#211C17"
   opacity="1.000000"
   stroke="none"
   d=" M138.513885,7.191257   C137.911636,7.879867 136.835236,9.116598 135.779312,9.099345   C126.778389,8.952277 117.781189,8.577482 108.393547,8.137915   C118.019226,7.722649 128.034225,7.440353 138.513885,7.191257  z"
   id="path117" />
<path
   fill="#211C17"
   opacity="1.000000"
   stroke="none"
   d=" M84.527367,8.202920   C82.516922,8.798180 80.099701,9.362585 77.250397,9.909630   C79.252411,9.318868 81.686501,8.745466 84.527367,8.202920  z"
   id="path119" />
<path
   fill="#211C17"
   opacity="1.000000"
   stroke="none"
   d=" M105.579414,8.011910   C104.476219,8.173099 102.957870,8.322815 101.227867,8.267885   C102.398895,8.042307 103.781578,8.021373 105.579414,8.011910  z"
   id="path121" />
</svg>
